<svg width="60" height="46" viewBox="0 0 60 46" fill="none" xmlns="http://www.w3.org/2000/svg">
<g clip-path="url(#clip0)">
<path d="M13.6364 45.0116V21.8296L6.44695 15.2523L0 11.6024V40.9206C0 43.1842 1.83398 45.0116 4.09102 45.0116H13.6364Z" fill="#4285F4"/>
<path d="M46.3636 45.0118H55.909C58.1728 45.0118 60 43.1776 60 40.9208V11.6028L52.6978 15.7833L46.3636 21.8297V45.0118Z" fill="#34A853"/>
<path d="M13.6364 21.8296L12.6581 12.7717L13.6364 4.10242L30 16.3752L46.3636 4.10242L47.4581 12.3037L46.3636 21.8296L30 34.1024L13.6364 21.8296Z" fill="#EA4335"/>
<path d="M46.3636 4.10243V21.8296L60 11.6024V6.14782C60 1.08883 54.225 -1.79515 50.182 1.23883L46.3636 4.10243Z" fill="#FBBC04"/>
<path d="M0 11.6024L6.27164 16.3063L13.6364 21.8296V4.10241L9.81797 1.23882C5.76797 -1.7954 0 1.08882 0 6.14757V11.6022V11.6024Z" fill="#C5221F"/>
</g>
<defs>
<clipPath id="clip0">
<rect width="60" height="45.2344" fill="white"/>
</clipPath>
</defs>
</svg>
