<svg width="35" height="35" viewBox="0 0 35 35" fill="none" xmlns="http://www.w3.org/2000/svg">
<path fill-rule="evenodd" clip-rule="evenodd" d="M10.8864 1.55459C12.5971 1.47584 13.1425 1.45834 17.5 1.45834C21.8575 1.45834 22.4029 1.4773 24.1121 1.55459C25.8212 1.63189 26.9879 1.90459 28.0087 2.2998C29.0777 2.70376 30.0475 3.33522 30.8496 4.15188C31.6662 4.95251 32.2962 5.92084 32.6987 6.99126C33.0954 8.01209 33.3666 9.17876 33.4454 10.885C33.5241 12.5986 33.5416 13.144 33.5416 17.5C33.5416 21.8575 33.5227 22.4029 33.4454 24.1136C33.3681 25.8198 33.0954 26.9865 32.6987 28.0073C32.2962 29.0779 31.6652 30.0478 30.8496 30.8496C30.0475 31.6663 29.0777 32.2963 28.0087 32.6988C26.9879 33.0954 25.8212 33.3667 24.115 33.4454C22.4029 33.5242 21.8575 33.5417 17.5 33.5417C13.1425 33.5417 12.5971 33.5227 10.8864 33.4454C9.18019 33.3681 8.01352 33.0954 6.99269 32.6988C5.92216 32.2962 4.95222 31.6652 4.1504 30.8496C3.33428 30.0485 2.70273 29.079 2.29977 28.0088C1.90456 26.9879 1.63331 25.8213 1.55456 24.115C1.47581 22.4015 1.45831 21.8561 1.45831 17.5C1.45831 13.1425 1.47727 12.5971 1.55456 10.8879C1.63185 9.17876 1.90456 8.01209 2.29977 6.99126C2.70333 5.92096 3.33536 4.95151 4.15185 4.15043C4.95254 3.33449 5.9215 2.70295 6.99123 2.2998C8.01206 1.90459 9.17873 1.63334 10.885 1.55459H10.8864ZM23.9823 4.44209C22.2906 4.3648 21.7831 4.34876 17.5 4.34876C13.2169 4.34876 12.7094 4.3648 11.0177 4.44209C9.4529 4.51355 8.60415 4.77459 8.03831 4.9948C7.29019 5.28647 6.75498 5.63209 6.19352 6.19355C5.66129 6.71134 5.2517 7.34167 4.99477 8.03834C4.77456 8.60418 4.51352 9.45293 4.44206 11.0177C4.36477 12.7094 4.34873 13.2169 4.34873 17.5C4.34873 21.7831 4.36477 22.2906 4.44206 23.9823C4.51352 25.5471 4.77456 26.3958 4.99477 26.9617C5.25144 27.6573 5.66123 28.2888 6.19352 28.8065C6.71123 29.3388 7.34269 29.7486 8.03831 30.0052C8.60415 30.2254 9.4529 30.4865 11.0177 30.5579C12.7094 30.6352 13.2154 30.6513 17.5 30.6513C21.7846 30.6513 22.2906 30.6352 23.9823 30.5579C25.5471 30.4865 26.3958 30.2254 26.9616 30.0052C27.7098 29.7136 28.245 29.3679 28.8064 28.8065C29.3387 28.2888 29.7485 27.6573 30.0052 26.9617C30.2254 26.3958 30.4864 25.5471 30.5579 23.9823C30.6352 22.2906 30.6512 21.7831 30.6512 17.5C30.6512 13.2169 30.6352 12.7094 30.5579 11.0177C30.4864 9.45293 30.2254 8.60418 30.0052 8.03834C29.7135 7.29022 29.3679 6.75501 28.8064 6.19355C28.2886 5.66136 27.6583 5.25178 26.9616 4.9948C26.3958 4.77459 25.5471 4.51355 23.9823 4.44209ZM15.451 22.4452C16.5953 22.9216 17.8695 22.9858 19.0559 22.6271C20.2423 22.2684 21.2674 21.5088 21.9561 20.4783C22.6447 19.4477 22.9542 18.21 22.8317 16.9766C22.7092 15.7432 22.1623 14.5906 21.2844 13.7156C20.7247 13.1563 20.048 12.7281 19.303 12.4617C18.5579 12.1953 17.7631 12.0974 16.9757 12.1751C16.1883 12.2527 15.4279 12.504 14.7493 12.9108C14.0706 13.3176 13.4906 13.8698 13.051 14.5277C12.6114 15.1856 12.3232 15.9327 12.207 16.7154C12.0908 17.498 12.1496 18.2967 12.3791 19.0539C12.6086 19.8111 13.0032 20.508 13.5344 21.0944C14.0655 21.6808 14.7201 22.1422 15.451 22.4452ZM11.6696 11.6696C12.4352 10.9039 13.3442 10.2966 14.3446 9.8822C15.345 9.46783 16.4172 9.25456 17.5 9.25456C18.5828 9.25456 19.655 9.46783 20.6554 9.8822C21.6558 10.2966 22.5647 10.9039 23.3304 11.6696C24.0961 12.4353 24.7034 13.3442 25.1178 14.3446C25.5322 15.345 25.7454 16.4172 25.7454 17.5C25.7454 18.5828 25.5322 19.655 25.1178 20.6554C24.7034 21.6558 24.0961 22.5648 23.3304 23.3304C21.7841 24.8767 19.6868 25.7455 17.5 25.7455C15.3131 25.7455 13.2159 24.8767 11.6696 23.3304C10.1232 21.7841 9.25453 19.6868 9.25453 17.5C9.25453 15.3132 10.1232 13.2159 11.6696 11.6696ZM27.5741 10.4825C27.7639 10.3035 27.9158 10.0883 28.0208 9.84956C28.1259 9.61082 28.182 9.35342 28.1858 9.09262C28.1896 8.83181 28.141 8.57289 28.043 8.33119C27.9449 8.08949 27.7994 7.86992 27.6149 7.68548C27.4305 7.50105 27.2109 7.35549 26.9692 7.25743C26.7275 7.15937 26.4686 7.11081 26.2078 7.11461C25.947 7.11841 25.6896 7.17451 25.4508 7.27957C25.2121 7.38463 24.9969 7.53652 24.8179 7.72626C24.4698 8.09526 24.2792 8.5854 24.2866 9.09262C24.294 9.59984 24.4988 10.0842 24.8575 10.4429C25.2162 10.8016 25.7006 11.0064 26.2078 11.0138C26.715 11.0212 27.2051 10.8306 27.5741 10.4825Z" fill="#828282"/>
</svg>
