<svg width="60" height="60" viewBox="0 0 35 35" fill="none" xmlns="http://www.w3.org/2000/svg">
<path fill-rule="evenodd" clip-rule="evenodd" d="M1.45834 4.13876C1.45834 3.42787 1.74074 2.7461 2.24342 2.24342C2.7461 1.74075 3.42787 1.45835 4.13876 1.45835H30.8583C31.2106 1.45777 31.5596 1.52669 31.8852 1.66115C32.2108 1.79562 32.5068 1.99299 32.756 2.24196C33.0052 2.49094 33.2029 2.78663 33.3378 3.11211C33.4726 3.43759 33.5419 3.78647 33.5417 4.13876V30.8584C33.5421 31.2107 33.473 31.5597 33.3383 31.8853C33.2037 32.211 33.0062 32.5069 32.7571 32.7561C32.508 33.0053 32.2122 33.203 31.8867 33.3378C31.5611 33.4726 31.2122 33.5419 30.8598 33.5417H4.13876C3.78664 33.5417 3.43797 33.4723 3.11267 33.3375C2.78737 33.2027 2.49182 33.0051 2.2429 32.7561C1.99399 32.507 1.79658 32.2114 1.66196 31.886C1.52734 31.5606 1.45815 31.2119 1.45834 30.8598V4.13876ZM14.1575 13.6908H18.5019V15.8725C19.129 14.6184 20.7331 13.4896 23.1438 13.4896C27.7652 13.4896 28.8604 15.9877 28.8604 20.5713V29.0617H24.1836V21.6154C24.1836 19.005 23.5565 17.5321 21.964 17.5321C19.7546 17.5321 18.8358 19.1202 18.8358 21.6154V29.0617H14.1575V13.6908ZM6.13668 28.8619H10.815V13.4896H6.13668V28.8604V28.8619ZM11.4844 8.47585C11.4932 8.87641 11.4219 9.2747 11.2747 9.64735C11.1275 10.02 10.9074 10.3595 10.6272 10.6459C10.347 10.9323 10.0125 11.1599 9.64318 11.3152C9.27386 11.4706 8.87724 11.5506 8.47657 11.5506C8.07591 11.5506 7.67929 11.4706 7.30997 11.3152C6.94066 11.1599 6.6061 10.9323 6.32592 10.6459C6.04575 10.3595 5.8256 10.02 5.67841 9.64735C5.53122 9.2747 5.45994 8.87641 5.46876 8.47585C5.48607 7.68959 5.81057 6.94138 6.37276 6.39143C6.93495 5.84149 7.69013 5.53354 8.47657 5.53354C9.26302 5.53354 10.0182 5.84149 10.5804 6.39143C11.1426 6.94138 11.4671 7.68959 11.4844 8.47585Z" fill="#fff"/>
</svg>
