<svg width="50" height="50" viewBox="0 0 50 50" fill="none" xmlns="http://www.w3.org/2000/svg">
<path fill-rule="evenodd" clip-rule="evenodd" d="M18.75 39.5833C16.6667 39.5833 10.4167 33.3333 10.4167 31.25C10.4167 30.5562 11.1104 29.1666 12.5 27.0833L7.03541 25.7166C6.71138 25.6358 6.41154 25.4783 6.16114 25.2573C5.91075 25.0363 5.71715 24.7584 5.59665 24.4469C5.47615 24.1355 5.43229 23.7996 5.46877 23.4677C5.50524 23.1357 5.62099 22.8174 5.80624 22.5395L7.51874 19.9708C7.75727 19.6133 8.10053 19.3383 8.50148 19.1835C8.90243 19.0287 9.34144 19.0017 9.75833 19.1062L16.6667 20.8333C25 8.33329 37.5 4.16663 45.8333 4.16663C45.8333 12.5 41.6667 25 29.1667 33.3333L30.8958 40.2416C31.0001 40.6587 30.9728 41.0979 30.8176 41.4989C30.6625 41.8998 30.3871 42.243 30.0292 42.4812L27.4604 44.1937C27.1825 44.379 26.8642 44.4947 26.5323 44.5312C26.2003 44.5677 25.8645 44.5238 25.553 44.4033C25.2416 44.2828 24.9636 44.0892 24.7427 43.8388C24.5217 43.5884 24.3642 43.2886 24.2833 42.9645L22.9167 37.5C20.8333 38.8895 19.4437 39.5833 18.75 39.5833ZM32.2917 20.8333C33.1205 20.8333 33.9153 20.5041 34.5014 19.918C35.0874 19.332 35.4167 18.5371 35.4167 17.7083C35.4167 16.8795 35.0874 16.0846 34.5014 15.4986C33.9153 14.9125 33.1205 14.5833 32.2917 14.5833C31.4629 14.5833 30.668 14.9125 30.0819 15.4986C29.4959 16.0846 29.1667 16.8795 29.1667 17.7083C29.1667 18.5371 29.4959 19.332 30.0819 19.918C30.668 20.5041 31.4629 20.8333 32.2917 20.8333ZM8.33332 33.3333L10.4167 36.4583C9.02707 37.8479 8.33332 39.5833 8.33332 41.6666C10.4167 41.6666 12.1521 40.9729 13.5417 39.5833L16.6667 41.6666C14.2917 44.0416 10.9 45.402 6.49374 45.7458C6.19365 45.7693 5.89204 45.7275 5.60966 45.6232C5.32728 45.519 5.07084 45.3548 4.858 45.142C4.64515 44.9291 4.48096 44.6727 4.37672 44.3903C4.27248 44.1079 4.23066 43.8063 4.25416 43.5062C4.59791 39.1 5.95832 35.7083 8.33332 33.3333Z" fill="#E0E0E0"/>
</svg>
