<svg width="50" height="50" viewBox="0 0 50 50" fill="none" xmlns="http://www.w3.org/2000/svg">
<path d="M49.2562 10.2854C47.5167 11.0562 45.6479 11.577 43.6833 11.8125C45.7104 10.5995 47.227 8.69051 47.95 6.44162C46.0455 7.57285 43.9611 8.36911 41.7875 8.79579C40.3258 7.23509 38.3897 6.20064 36.2798 5.85303C34.17 5.50542 32.0044 5.86411 30.1192 6.8734C28.2341 7.88269 26.7349 9.48613 25.8545 11.4348C24.974 13.3834 24.7615 15.5682 25.25 17.65C21.391 17.4562 17.6159 16.4532 14.1696 14.706C10.7234 12.9588 7.683 10.5065 5.24583 7.50829C4.4125 8.94579 3.93333 10.6125 3.93333 12.3875C3.9324 13.9854 4.3259 15.5588 5.07891 16.9682C5.83193 18.3775 6.92117 19.5792 8.25 20.4666C6.70891 20.4176 5.20182 20.0012 3.85417 19.252V19.377C3.85401 21.6182 4.62924 23.7903 6.0483 25.525C7.46736 27.2596 9.44286 28.4498 11.6396 28.8937C10.21 29.2806 8.71112 29.3376 7.25625 29.0604C7.87604 30.9887 9.08332 32.675 10.7091 33.8831C12.3349 35.0913 14.2977 35.7607 16.3229 35.7979C12.8851 38.4967 8.63935 39.9606 4.26875 39.9541C3.49454 39.9543 2.72099 39.9091 1.95208 39.8187C6.38849 42.6712 11.5528 44.185 16.8271 44.1791C34.6812 44.1791 44.4417 29.3916 44.4417 16.5666C44.4417 16.15 44.4313 15.7291 44.4125 15.3125C46.311 13.9395 47.9498 12.2393 49.2521 10.2916L49.2562 10.2854Z" fill="#E0E0E0"/>
</svg>
